<svg width="24" height="24" viewBox="0 0 24 24" fill="none" xmlns="http://www.w3.org/2000/svg">
<path d="M22.08 21.24C22.107 21.4805 22.0828 21.724 22.0089 21.9545C21.935 22.1849 21.8132 22.3972 21.6514 22.5772C21.4892 22.7569 21.2908 22.9002 21.0692 22.9977C20.8476 23.0952 20.6078 23.1447 20.3657 23.1429H3.63429C3.39218 23.1447 3.15244 23.0952 2.93083 22.9977C2.70922 22.9002 2.51078 22.7569 2.34857 22.5772C2.1868 22.3972 2.06497 22.1849 1.9911 21.9545C1.91724 21.724 1.893 21.4805 1.92 21.24L3.42857 7.71429H20.5714L22.08 21.24Z" stroke="black" stroke-width="1.71429" stroke-linecap="round" stroke-linejoin="round"/>
<path d="M7.71429 7.71429V5.14286C7.71429 4.00622 8.16582 2.91613 8.96955 2.1124C9.77328 1.30868 10.8634 0.857147 12 0.857147C13.1367 0.857147 14.2267 1.30868 15.0305 2.1124C15.8342 2.91613 16.2857 4.00622 16.2857 5.14286V7.71429" stroke="black" stroke-width="1.71429" stroke-linecap="round" stroke-linejoin="round"/>
</svg>
